<svg height="512" viewBox="0 0 512 512" width="512" xmlns="http://www.w3.org/2000/svg"><g id="Basketball"><path d="m304 496h-192l-24-192h240z" fill="#c2dff6"/><path d="m117.49 109.49 90.51 90.51-33.941 33.941a127.591 127.591 0 0 0 -94.017-37.448 127.635 127.635 0 0 1 37.448-87.003z" fill="#ff5023"/><path d="m204.493 72.042a127.591 127.591 0 0 0 37.448 94.017l-33.941 33.941-90.51-90.51a127.635 127.635 0 0 1 87.003-37.448z" fill="#aa6100"/><path d="m208 200 90.51 90.51a127.635 127.635 0 0 1 -87 37.448 127.591 127.591 0 0 0 -37.448-94.017z" fill="#ff5023"/><path d="m174.059 233.941a127.591 127.591 0 0 1 37.448 94.017l-.007-.007a127.661 127.661 0 0 1 -94.01-37.441z" fill="#ff9811"/><path d="m335.958 203.507a127.635 127.635 0 0 1 -37.448 87l-90.51-90.507 33.941-33.941a127.591 127.591 0 0 0 94.017 37.448z" fill="#aa6100"/><g fill="#ff9811"><path d="m298.51 109.49-56.569 56.569a127.591 127.591 0 0 1 -37.448-94.017l.007.007a127.661 127.661 0 0 1 94.01 37.441z"/><path d="m298.51 109.49a127.661 127.661 0 0 1 37.441 94.01l.007.007a127.591 127.591 0 0 1 -94.017-37.448z"/><path d="m174.059 233.941-56.569 56.569a127.661 127.661 0 0 1 -37.441-94.01l-.007-.007a127.591 127.591 0 0 1 94.017 37.448z"/><rect height="32" rx="16" transform="matrix(-1 0 0 -1 418 608)" width="320" x="49" y="288"/></g><path d="m376 304h48" fill="#e0e0e2"/><path d="m424 16h40v424h-40z" fill="#acabb1" transform="matrix(-1 0 0 -1 888 456)"/><path d="m464 8h-40a8 8 0 0 0 -8 8v280h-40c-.125 0-.246.013-.37.019a24.038 24.038 0 0 0 -22.63-16.019h-35a136.025 136.025 0 0 0 -13.833-176.167c-53.025-53.025-139.3-53.026-192.334 0a136.025 136.025 0 0 0 -13.833 176.167h-33a24 24 0 0 0 0 48h17.056l24.023 169.125a8 8 0 0 0 15.842-2.25l-6.672-46.975a7.965 7.965 0 0 0 3.57-1.516l50.918-38.429 28.211 27.083-57.488 55.191a8 8 0 1 0 11.08 11.542l57.96-55.642 57.96 55.642a8 8 0 0 0 11.08-11.542l-57.488-55.189 28.071-26.948 51.077 38.308a7.95 7.95 0 0 0 3.293 1.442l-6.42 47.077a8 8 0 0 0 15.854 2.162l23.056-169.081h17.017a24.038 24.038 0 0 0 22.63-16.019c.124.006.245.019.37.019h40v128a8 8 0 0 0 8 8h40a8 8 0 0 0 8-8v-424a8 8 0 0 0 -8-8zm-290.134 237.448a120.482 120.482 0 0 1 21.173 34.552h-55.725zm-56.183 33.552a119.155 119.155 0 0 1 -29.6-74.472 118.61 118.61 0 0 1 74.474 29.6zm94.412 1a136.371 136.371 0 0 0 -26.895-45.888l22.8-22.8 68.686 68.688zm30.035-125.444a118.507 118.507 0 0 1 -29.6-74.407 119.562 119.562 0 0 1 74.47 29.534zm-11.336 11.336-22.794 22.794-79-79a119.444 119.444 0 0 1 67.54-29.086 134.341 134.341 0 0 0 34.254 85.292zm11.315 11.313a134.34 134.34 0 0 0 85.348 34.259 119.073 119.073 0 0 1 -29.14 67.536l-79-79zm85.809 18.266a118.45 118.45 0 0 1 -74.474-29.6l44.876-44.876a119.2 119.2 0 0 1 29.598 74.476zm-210.238-74.477 79.006 79.006-22.794 22.794a134.432 134.432 0 0 0 -85.346-34.257 119.112 119.112 0 0 1 29.134-67.543zm191.768 207.006-61.6 59.136-25.341-19.005 53.173-40.131zm-100.263 30.139-40.185-30.139h80.12zm-66.851-30.139 53.56 40.17-24.913 18.8-61.429-58.97zm-29.506 102.862-12.753-89.781 57.972 55.653zm96.672-6.911-26.828-25.751 26.544-20.033 26.937 20.2zm51.318-27.087 57.1-54.817-12.078 88.583zm92.182-84.864h-288a8 8 0 0 1 0-16h288a8 8 0 0 1 0 16zm103 120h-24v-408h24z"/></g></svg>